<svg data-name="Logo vertical blanc" xmlns="http://www.w3.org/2000/svg" width="195" height="122" viewBox="0 0 195 122">
    <path data-name="Tracé 4885" d="m361.965 80.369 26.072 11.824h39.935l3.3-5.722a4.95 4.95 0 0 0-4.028-7.55h-65a.743.743 0 0 0-.279 1.448z" transform="translate(-287.04 -78.921)" style="fill:#ffcb05"/>
    <path data-name="Tracé 4886" d="M346.085 126.316h65.048a1.475 1.475 0 0 1 .412 2.894l-117.7 31.8a.74.74 0 0 1-.662-1.291z" transform="translate(-245.087 -107.968)" style="fill:#ffcb05"/>
    <path data-name="Tracé 4887" d="m345.262 190.747 42.7-.792c4.142-.077 8.994-2.458 11.208-6.291l5.121-8.867z" transform="translate(-277.131 -137.681)" style="fill:#ffcb05"/>
    <g>
        <g data-name="la poste">
            <path d="M239.187 263.82h-5.171l-13.09 25.188h5.457l2.344-4.631H244.4l1.539 3.041c.755 1.492 1.455 1.59 3.42 1.59h2.917zm-8.179 16.047 5.555-10.975 5.555 10.975z" transform="translate(-201.044 -192.241)" style="fill:#ffcb05"/>
            <path d="M332.745 281.656v7.454h-5.066v-24.953c2.661-.068 6.252-.171 9.222-.171 5.792 0 9.649.82 11.942 3.107a7.287 7.287 0 0 1 2.033 5.437c0 7.208-5.641 9.169-13.686 9.169-1.099.001-3.148-.026-4.445-.043zm0-4.621c1.276.026 2.883.044 3.992.044 3.248 0 6.226-.1 7.815-1.683a3.665 3.665 0 0 0 1.056-2.781 3.436 3.436 0 0 0-.858-2.329c-1.586-1.583-3.891-1.68-8.013-1.68-1.109 0-2.714.018-3.992.044z" transform="translate(-266.371 -192.343)" style="fill:#ffcb05"/>
            <path d="M424.67 276.125c0 7.15-5.64 12.967-15.117 12.967s-15.117-5.817-15.117-12.967 5.64-12.967 15.117-12.967 15.117 5.817 15.117 12.967zm-15.117-8.43c-5.742 0-9.839 3.32-9.839 8.43s4.094 8.43 9.839 8.43 9.839-3.32 9.839-8.43-4.093-8.43-9.838-8.43z" transform="translate(-307.222 -191.835)" style="fill:#ffcb05"/>
            <path d="M501.7 265.953a22.355 22.355 0 0 0-10.583-2.8c-6.36 0-11.356 3.335-11.356 7.974 0 8.739 17.246 5.5 17.246 10.685 0 2.116-3.153 3.021-5.849 3.021a18.135 18.135 0 0 1-10.08-3.152l-2.593 3.847a23.943 23.943 0 0 0 12.231 3.561c6.3 0 11.567-2.927 11.567-7.828 0-8.87-17.167-6.11-17.167-10.92 0-2.037 2.842-2.928 5.911-2.928a15.608 15.608 0 0 1 8.288 2.52z" transform="translate(-358.656 -191.834)" style="fill:#ffcb05"/>
            <path d="M568.664 264.378h-24.179v4.638h9.469v20.334h5.066v-20.334h9.645z" transform="translate(-399.043 -192.583)" style="fill:#ffcb05"/>
            <path data-name="Tracé 4888" d="M614.991 264.378v23.175a1.682 1.682 0 0 0 1.81 1.8h20.388v-4.62h-17.132v-5.808h15.3V274.3h-15.3v-5.287h16.677v-4.639h-21.743" transform="translate(-442.189 -192.583)" style="fill:#ffcb05"/>
            <path data-name="Tracé 4889" d="M174.757 264.378h-5.065v23.175a1.682 1.682 0 0 0 1.81 1.8h15.131l2.4-4.62h-14.28z" transform="translate(-169.692 -192.583)" style="fill:#ffcb05"/>
        </g>
        <path data-name="Tracé 4890" d="M312.843 366.153v5.405a11.249 11.249 0 0 1-9.521 1.4 6.311 6.311 0 0 1-3.871-8.509c2.089-4.762 9.2-4.935 12.963-2.167l-1.359 2.015c-2.6-1.918-7.376-2.28-9.011.981a4.024 4.024 0 0 0 .992 4.691c2 1.617 5.1 1.349 7.3.2v-1.659H306.5v-2.354z" transform="translate(-248.773 -251.478)" style="fill:#ffcb05"/>
        <path data-name="Tracé 4891" d="M358.413 373.453h-2.2a1.933 1.933 0 0 1-1.681-.66l-2.759-3.354h-3.226v4.013H345.9v-12.485c3.371.061 8.456-.785 11 1.445a3.994 3.994 0 0 1-2.22 6.707zm-7.755-6.314c1.332-.049 2.979.156 4.041-.753a1.716 1.716 0 0 0 .089-2.365 4.025 4.025 0 0 0-2.718-.726c-1.066-.009-2.409-.024-3.522.009v3.817c.578.025 1.552.016 2.109.018z" transform="translate(-277.522 -251.714)" style="fill:#ffcb05"/>
        <path data-name="Tracé 4892" d="M399.907 366.975c0 3.812-3.1 6.5-7.566 6.5-4.932 0-7.567-3.107-7.567-6.5 0-3.491 2.719-6.5 7.567-6.5 4.897.004 7.566 3.061 7.566 6.5zm-7.557-4.122c-2.609 0-4.821 1.46-4.821 4.122 0 2.547 2.064 4.117 4.821 4.122 2.573.005 4.8-1.439 4.8-4.122.002-2.422-1.9-4.123-4.801-4.123z" transform="translate(-301.309 -251.481)" style="fill:#ffcb05"/>
        <path data-name="Tracé 4893" d="M439.413 373.874c-3.664 0-6.151-1.918-6.151-5.672v-7.064h2.646v6.849c0 2.256 1.13 3.514 3.5 3.514 2.295 0 3.522-1.122 3.522-3.514v-6.849h2.647v7.062c.005 4.08-2.882 5.674-6.164 5.674z" transform="translate(-330.982 -251.885)" style="fill:#ffcb05"/>
        <path data-name="Tracé 4894" d="M478.759 369.717v3.728h-2.647v-12.486c6.507-.294 11.63-.358 11.63 4.309 0 4.848-5.705 4.511-8.983 4.449zm0-2.408c1.013 0 2.057.023 3.049.009 1.789-.025 3.187-.477 3.187-2.081 0-1.833-2.195-1.9-2.973-1.932a47.36 47.36 0 0 0-3.263-.009z" transform="translate(-357.204 -251.706)" style="fill:#ffcb05"/>
        <path data-name="Tracé 4895" d="M525.227 361.138v2.408H517v2.5h7.546v2.408H517v2.765h8.457v2.408h-10.189a.837.837 0 0 1-.912-.892v-11.597z" transform="translate(-380.607 -251.885)" style="fill:#ffcb05"/>
    </g>
</svg>
